<svg xmlns="http://www.w3.org/2000/svg" xmlns:xlink="http://www.w3.org/1999/xlink" width="100" height="100" viewBox="0 0 100 100"><g><g transform="translate(50 50) scale(0.69 0.69) rotate(0) translate(-50 -50)" style="fill:#8BC340"><svg fill="#8BC340" xmlns="http://www.w3.org/2000/svg" xmlns:xlink="http://www.w3.org/1999/xlink" version="1.1" x="0px" y="0px" viewBox="0 0 512 512" enable-background="new 0 0 512 512" xml:space="preserve"><path d="M341.14,94.453c0-26.485-21.544-48.029-48.028-48.029H140.298c-26.484,0-48.029,21.544-48.029,48.029V432.83H341.14V94.453z   M328.042,419.73H105.367V94.453c0-19.261,15.67-34.931,34.931-34.931h152.813c19.261,0,34.931,15.669,34.931,34.931V419.73  L328.042,419.73z"></path><rect x="79.17" y="452.478" width="275.068" height="13.1"></rect><path d="M279.191,79.17H154.218c-16.101,0-29.203,13.102-29.203,29.203v39.833c0,16.102,13.103,29.203,29.203,29.203h124.974  c16.102,0,29.203-13.101,29.203-29.203v-39.833C308.395,92.272,295.292,79.17,279.191,79.17z"></path><path d="M408.151,95.575c-4.128-3.307-9.501-4.727-14.71-3.92c-5.227,0.812-9.9,3.802-12.833,8.2  c-4.982,7.473-3.991,17.508,2.359,23.856l10.565,10.565v49.683h39.296V115.32L408.151,95.575z M419.731,170.86h-13.1v-42.008  l-14.403-14.403c-1.949-1.951-2.255-5.033-0.723-7.33c0.915-1.372,2.315-2.267,3.946-2.52s3.229,0.175,4.519,1.202l19.761,15.81  V170.86L419.731,170.86z"></path><path d="M406.633,350.964c0,9.028-7.346,16.374-16.373,16.374s-16.373-7.346-16.373-16.374V236.353h-13.099v114.611  c0,16.252,13.22,29.472,29.472,29.472c16.251,0,29.473-13.22,29.473-29.472V203.606h-13.1V350.964z"></path><path d="M160.065,287.872c-1.781,11.715,1.48,23.271,8.37,32.295c-9.398,27.507-4.391,59.218-4.035,61.347l12.919-2.156  c-0.063-0.379-3.241-20.416,0.216-41.104c0.676-9.979,5.288-43.008,36.735-55.588l4.868,12.164  c-21.286,8.514-26.746,30.209-28.146,40.598c5.772,1.5,12.441,2.13,17.251,1.246c96.139-17.642,71.014-126.517,71.014-126.517  C188.375,210.155,165.035,255.183,160.065,287.872z"></path></svg></g></g></svg>