<svg xmlns="http://www.w3.org/2000/svg" xmlns:xlink="http://www.w3.org/1999/xlink" width="100" height="100" viewBox="0 0 100 100"><g><g transform="translate(50 50) scale(0.69 0.69) rotate(0) translate(-50 -50)" style="fill:#0080FF"><svg fill="#0080FF" xmlns="http://www.w3.org/2000/svg" data-name="Layer 1" viewBox="0 0 64 64" x="0px" y="0px"><title>global-pin-expand-branch-everywhere-worldwide-universal</title><path d="M23,13a3,3,0,1,0-4,2.81476V19h2V15.81476A3.00159,3.00159,0,0,0,23,13Z"></path><path d="M33.5,28h-3a2.5,2.5,0,0,0,0,5h3a2.5,2.5,0,0,0,0-5Z"></path><path d="M49,39a3,3,0,1,0-4,2.81476V45h2V41.81476A3.00159,3.00159,0,0,0,49,39Z"></path><path d="M17,42a3,3,0,1,0-4,2.81476V48h2V44.81476A3.00159,3.00159,0,0,0,17,42Z"></path><path d="M32,2A30,30,0,1,0,62,32,30.03406,30.03406,0,0,0,32,2ZM50,14a2.99289,2.99289,0,0,1,1,5.81628V25H49V19.81628A2.99289,2.99289,0,0,1,50,14ZM60,32c0,.33533-.01361.66748-.02539,1H57.43A1.42335,1.42335,0,0,0,56,34.43V37.6A1.40412,1.40412,0,0,1,54.6,39h-.2A1.40411,1.40411,0,0,0,53,40.4v3.2A1.40412,1.40412,0,0,1,51.6,45H47v2H45V45H43.4A1.40411,1.40411,0,0,0,42,46.4v4.2A1.40412,1.40412,0,0,0,43.4,52h8.16932A27.99307,27.99307,0,0,1,39,59.114V55.5A1.5,1.5,0,0,0,37.5,54h-3A1.5,1.5,0,0,1,33,52.5v-5a3.5,3.5,0,0,0-7,0v2A1.5,1.5,0,0,1,24.5,51h-5A1.5,1.5,0,0,1,18,49.5,1.5,1.5,0,0,0,16.5,48H15v2H13V48H9.04156A27.8318,27.8318,0,0,1,4.28644,35.97015l2.69189.00977A2.00142,2.00142,0,0,0,9,33.98V32a2.00587,2.00587,0,0,1,2-2h5a2.00612,2.00612,0,0,0,1.99982-1.97192A1.95337,1.95337,0,0,1,19.895,26H21.5a3.5,3.5,0,0,0,0-7H21v2H19V19H16a2.00612,2.00612,0,0,1-1.99982-1.97192A1.95341,1.95341,0,0,0,12.105,15H9.7724a27.91927,27.91927,0,0,1,26.199-10.71338A2.00113,2.00113,0,0,1,34,6a2.01456,2.01456,0,0,0-2,2,2.00591,2.00591,0,0,0,2,2h2.02A2.98746,2.98746,0,0,1,39,12.98v.04A2.98751,2.98751,0,0,1,36.02,16H32.98A2.98746,2.98746,0,0,0,30,18.98v.04A2.98751,2.98751,0,0,0,32.98,22h8.04A2.98746,2.98746,0,0,1,44,24.98v.08A2.94477,2.94477,0,0,0,46.94,28H59.70978A28.09453,28.09453,0,0,1,60,32Z"></path></svg></g></g></svg>